<mxfile host="65bd71144e">
    <diagram name="Página-1" id="MdWGucyvYeU025aUTx1E">
        <mxGraphModel dx="1326" dy="787" grid="1" gridSize="10" guides="1" tooltips="1" connect="1" arrows="1" fold="1" page="1" pageScale="1" pageWidth="1920" pageHeight="1200" math="0" shadow="0">
            <root>
                <mxCell id="0"/>
                <mxCell id="1" parent="0"/>
                <mxCell id="A5P3lDL0b0JkOm_hCBow-1" value="Ciclista" style="swimlane;childLayout=stackLayout;horizontal=1;startSize=30;horizontalStack=0;rounded=1;fontSize=14;fontStyle=0;strokeWidth=2;resizeParent=0;resizeLast=1;shadow=0;dashed=0;align=center;arcSize=4;whiteSpace=wrap;html=1;" parent="1" vertex="1">
                    <mxGeometry x="370" y="320" width="160" height="150" as="geometry"/>
                </mxCell>
                <mxCell id="A5P3lDL0b0JkOm_hCBow-2" value="+ID&lt;br&gt;+Nombre&lt;br&gt;+Nacionalidad&lt;div&gt;+Fecha Nac.&lt;/div&gt;&lt;div&gt;+Equipo&lt;/div&gt;&lt;div&gt;+Inicio Contrato&lt;/div&gt;&lt;div&gt;+Fin Contrato&lt;/div&gt;" style="align=left;strokeColor=none;fillColor=none;spacingLeft=4;spacingRight=4;fontSize=12;verticalAlign=top;resizable=0;rotatable=0;part=1;html=1;whiteSpace=wrap;" parent="A5P3lDL0b0JkOm_hCBow-1" vertex="1">
                    <mxGeometry y="30" width="160" height="120" as="geometry"/>
                </mxCell>
                <mxCell id="A5P3lDL0b0JkOm_hCBow-3" value="Prueba" style="swimlane;childLayout=stackLayout;horizontal=1;startSize=30;horizontalStack=0;rounded=1;fontSize=14;fontStyle=0;strokeWidth=2;resizeParent=0;resizeLast=1;shadow=0;dashed=0;align=center;arcSize=4;whiteSpace=wrap;html=1;" parent="1" vertex="1">
                    <mxGeometry x="970" y="440" width="160" height="160" as="geometry"/>
                </mxCell>
                <mxCell id="A5P3lDL0b0JkOm_hCBow-4" value="+ID&lt;div&gt;+ID ciclista&lt;br&gt;+ID Equipo&lt;br&gt;&lt;div&gt;+Nombre&lt;/div&gt;&lt;div&gt;+Año Edicion&lt;/div&gt;&lt;div&gt;+Nº Etapas&lt;/div&gt;&lt;div&gt;+Kms. Total&lt;/div&gt;&lt;div&gt;+Posicion&lt;/div&gt;&lt;/div&gt;" style="align=left;strokeColor=none;fillColor=none;spacingLeft=4;spacingRight=4;fontSize=12;verticalAlign=top;resizable=0;rotatable=0;part=1;html=1;whiteSpace=wrap;" parent="A5P3lDL0b0JkOm_hCBow-3" vertex="1">
                    <mxGeometry y="30" width="160" height="130" as="geometry"/>
                </mxCell>
                <mxCell id="A5P3lDL0b0JkOm_hCBow-5" value="Equipo" style="swimlane;childLayout=stackLayout;horizontal=1;startSize=30;horizontalStack=0;rounded=1;fontSize=14;fontStyle=0;strokeWidth=2;resizeParent=0;resizeLast=1;shadow=0;dashed=0;align=center;arcSize=4;whiteSpace=wrap;html=1;" parent="1" vertex="1">
                    <mxGeometry x="370" y="580" width="160" height="120" as="geometry"/>
                </mxCell>
                <mxCell id="A5P3lDL0b0JkOm_hCBow-6" value="+ID&lt;div&gt;+Nombre&lt;/div&gt;&lt;div&gt;+Nacionalidad&lt;/div&gt;&lt;div&gt;+ID Ciclista&lt;/div&gt;&lt;div&gt;+ID Prueba&lt;/div&gt;&lt;div&gt;&lt;br&gt;&lt;/div&gt;" style="align=left;strokeColor=none;fillColor=none;spacingLeft=4;spacingRight=4;fontSize=12;verticalAlign=top;resizable=0;rotatable=0;part=1;html=1;whiteSpace=wrap;" parent="A5P3lDL0b0JkOm_hCBow-5" vertex="1">
                    <mxGeometry y="30" width="160" height="90" as="geometry"/>
                </mxCell>
                <mxCell id="A5P3lDL0b0JkOm_hCBow-8" value="Relationship" style="shape=rhombus;perimeter=rhombusPerimeter;whiteSpace=wrap;html=1;align=center;" parent="1" vertex="1">
                    <mxGeometry x="720" y="600" width="120" height="60" as="geometry"/>
                </mxCell>
                <mxCell id="A5P3lDL0b0JkOm_hCBow-9" value="Relationship" style="shape=rhombus;perimeter=rhombusPerimeter;whiteSpace=wrap;html=1;align=center;" parent="1" vertex="1">
                    <mxGeometry x="710" y="360" width="120" height="60" as="geometry"/>
                </mxCell>
                <mxCell id="A5P3lDL0b0JkOm_hCBow-10" value="Relationship" style="shape=rhombus;perimeter=rhombusPerimeter;whiteSpace=wrap;html=1;align=center;" parent="1" vertex="1">
                    <mxGeometry x="390" y="490" width="120" height="60" as="geometry"/>
                </mxCell>
                <mxCell id="A5P3lDL0b0JkOm_hCBow-11" value="" style="endArrow=none;html=1;rounded=0;entryX=0.5;entryY=1;entryDx=0;entryDy=0;exitX=0.5;exitY=0;exitDx=0;exitDy=0;" parent="1" source="A5P3lDL0b0JkOm_hCBow-10" target="A5P3lDL0b0JkOm_hCBow-2" edge="1">
                    <mxGeometry width="50" height="50" relative="1" as="geometry">
                        <mxPoint x="740" y="520" as="sourcePoint"/>
                        <mxPoint x="790" y="470" as="targetPoint"/>
                    </mxGeometry>
                </mxCell>
                <mxCell id="A5P3lDL0b0JkOm_hCBow-12" value="" style="endArrow=none;html=1;rounded=0;entryX=0.5;entryY=1;entryDx=0;entryDy=0;exitX=0.5;exitY=0;exitDx=0;exitDy=0;" parent="1" source="A5P3lDL0b0JkOm_hCBow-5" target="A5P3lDL0b0JkOm_hCBow-10" edge="1">
                    <mxGeometry width="50" height="50" relative="1" as="geometry">
                        <mxPoint x="610" y="570" as="sourcePoint"/>
                        <mxPoint x="610" y="500" as="targetPoint"/>
                    </mxGeometry>
                </mxCell>
                <mxCell id="A5P3lDL0b0JkOm_hCBow-13" value="" style="endArrow=none;html=1;rounded=0;entryX=0;entryY=0.5;entryDx=0;entryDy=0;exitX=1;exitY=0.25;exitDx=0;exitDy=0;" parent="1" source="A5P3lDL0b0JkOm_hCBow-6" target="A5P3lDL0b0JkOm_hCBow-8" edge="1">
                    <mxGeometry width="50" height="50" relative="1" as="geometry">
                        <mxPoint x="600" y="610" as="sourcePoint"/>
                        <mxPoint x="600" y="550" as="targetPoint"/>
                    </mxGeometry>
                </mxCell>
                <mxCell id="A5P3lDL0b0JkOm_hCBow-14" value="" style="endArrow=none;html=1;rounded=0;entryX=0;entryY=0.75;entryDx=0;entryDy=0;exitX=1;exitY=0.5;exitDx=0;exitDy=0;" parent="1" source="A5P3lDL0b0JkOm_hCBow-8" target="A5P3lDL0b0JkOm_hCBow-4" edge="1">
                    <mxGeometry width="50" height="50" relative="1" as="geometry">
                        <mxPoint x="790" y="653" as="sourcePoint"/>
                        <mxPoint x="880" y="550" as="targetPoint"/>
                    </mxGeometry>
                </mxCell>
                <mxCell id="A5P3lDL0b0JkOm_hCBow-15" value="" style="endArrow=none;html=1;rounded=0;entryX=0;entryY=0;entryDx=0;entryDy=0;exitX=1;exitY=0.5;exitDx=0;exitDy=0;" parent="1" source="A5P3lDL0b0JkOm_hCBow-9" target="A5P3lDL0b0JkOm_hCBow-4" edge="1">
                    <mxGeometry width="50" height="50" relative="1" as="geometry">
                        <mxPoint x="800" y="565" as="sourcePoint"/>
                        <mxPoint x="890" y="510" as="targetPoint"/>
                    </mxGeometry>
                </mxCell>
                <mxCell id="A5P3lDL0b0JkOm_hCBow-16" value="" style="endArrow=none;html=1;rounded=0;entryX=0;entryY=0.5;entryDx=0;entryDy=0;exitX=1;exitY=0.25;exitDx=0;exitDy=0;" parent="1" source="A5P3lDL0b0JkOm_hCBow-2" target="A5P3lDL0b0JkOm_hCBow-9" edge="1">
                    <mxGeometry width="50" height="50" relative="1" as="geometry">
                        <mxPoint x="690" y="460" as="sourcePoint"/>
                        <mxPoint x="780" y="450" as="targetPoint"/>
                    </mxGeometry>
                </mxCell>
                <mxCell id="A5P3lDL0b0JkOm_hCBow-17" value="N" style="text;html=1;align=center;verticalAlign=middle;resizable=0;points=[];autosize=1;strokeColor=none;fillColor=none;" parent="1" vertex="1">
                    <mxGeometry x="535" y="358" width="30" height="30" as="geometry"/>
                </mxCell>
                <mxCell id="A5P3lDL0b0JkOm_hCBow-18" value="N" style="text;html=1;align=center;verticalAlign=middle;resizable=0;points=[];autosize=1;strokeColor=none;fillColor=none;" parent="1" vertex="1">
                    <mxGeometry x="535" y="600" width="30" height="30" as="geometry"/>
                </mxCell>
                <mxCell id="A5P3lDL0b0JkOm_hCBow-19" value="N" style="text;html=1;align=center;verticalAlign=middle;resizable=0;points=[];autosize=1;strokeColor=none;fillColor=none;" parent="1" vertex="1">
                    <mxGeometry x="440" y="470" width="30" height="30" as="geometry"/>
                </mxCell>
                <mxCell id="A5P3lDL0b0JkOm_hCBow-20" value="1" style="text;html=1;align=center;verticalAlign=middle;resizable=0;points=[];autosize=1;strokeColor=none;fillColor=none;" parent="1" vertex="1">
                    <mxGeometry x="430" y="550" width="30" height="30" as="geometry"/>
                </mxCell>
                <mxCell id="A5P3lDL0b0JkOm_hCBow-21" value="1" style="text;html=1;align=center;verticalAlign=middle;resizable=0;points=[];autosize=1;strokeColor=none;fillColor=none;" parent="1" vertex="1">
                    <mxGeometry x="940" y="550" width="30" height="30" as="geometry"/>
                </mxCell>
                <mxCell id="A5P3lDL0b0JkOm_hCBow-22" value="1" style="text;html=1;align=center;verticalAlign=middle;resizable=0;points=[];autosize=1;strokeColor=none;fillColor=none;" parent="1" vertex="1">
                    <mxGeometry x="940" y="430" width="30" height="30" as="geometry"/>
                </mxCell>
            </root>
        </mxGraphModel>
    </diagram>
</mxfile>